<svg xmlns="http://www.w3.org/2000/svg" xmlns:xlink="http://www.w3.org/1999/xlink" version="1.1" x="0px" y="0px" viewBox="0 0 48 60" enable-background="new 0 0 48 48" xml:space="preserve"><g><polygon fill="#000000" points="39.3,24.1 26.1,24.1 26.1,17.4 39.3,17.4 39.3,12.4 47,20.7 39.3,29.1  "/><polygon fill="#000000" points="19.2,47 2.5,39 2.5,2.5 19.2,10.4  "/><g><path fill="#000000" d="M32.1,40.5H2.5C1.7,40.5,1,39.8,1,39V2.5C1,1.7,1.7,1,2.5,1h29.6c0.8,0,1.5,0.7,1.5,1.5v9.2    c0,0.8-0.7,1.5-1.5,1.5c-0.8,0-1.5-0.7-1.5-1.5V3.9H4v33.7h26.6v-7.7c0-0.8,0.7-1.5,1.5-1.5c0.8,0,1.5,0.7,1.5,1.5V39    C33.5,39.8,32.9,40.5,32.1,40.5z"/></g></g><text x="0" y="63" fill="#000000" font-size="5px" font-weight="bold" font-family="'Helvetica Neue', Helvetica, Arial-Unicode, Arial, Sans-serif">Created by Creative Stall</text><text x="0" y="68" fill="#000000" font-size="5px" font-weight="bold" font-family="'Helvetica Neue', Helvetica, Arial-Unicode, Arial, Sans-serif">from the Noun Project</text></svg>